<?xml version="1.0" encoding="UTF-8" standalone="no"?>
<!-- Created with Inkscape (http://www.inkscape.org/) -->

<svg
   xmlns:dc="http://purl.org/dc/elements/1.1/"
   xmlns:cc="http://creativecommons.org/ns#"
   xmlns:rdf="http://www.w3.org/1999/02/22-rdf-syntax-ns#"
   xmlns:svg="http://www.w3.org/2000/svg"
   xmlns="http://www.w3.org/2000/svg"
   xmlns:sodipodi="http://sodipodi.sourceforge.net/DTD/sodipodi-0.dtd"
   xmlns:inkscape="http://www.inkscape.org/namespaces/inkscape"
   width="744.09448819"
   height="1052.3622047"
   id="svg2"
   version="1.1"
   inkscape:version="0.48.5 r10040"
   sodipodi:docname="drawing1.svg">
  <defs
     id="defs4" />
  <sodipodi:namedview
     id="base"
     pagecolor="#ffffff"
     bordercolor="#666666"
     borderopacity="1.0"
     inkscape:pageopacity="0.0"
     inkscape:pageshadow="2"
     inkscape:zoom="0.35"
     inkscape:cx="375"
     inkscape:cy="520"
     inkscape:document-units="px"
     inkscape:current-layer="layer1"
     showgrid="false"
     inkscape:window-width="1280"
     inkscape:window-height="777"
     inkscape:window-x="-8"
     inkscape:window-y="-8"
     inkscape:window-maximized="1"
     inkscape:snap-bbox="false" />
  <metadata
     id="metadata7">
    <rdf:RDF>
      <cc:Work
         rdf:about="">
        <dc:format>image/svg+xml</dc:format>
        <dc:type
           rdf:resource="http://purl.org/dc/dcmitype/StillImage" />
        <dc:title></dc:title>
      </cc:Work>
    </rdf:RDF>
  </metadata>
  <g
     inkscape:label="Layer 1"
     inkscape:groupmode="layer"
     id="layer1">
    <g
       style="font-size:100px;text-align:center;text-anchor:middle"
       id="text2985"
       transform="matrix(0.8503937,0,0,0.83023761,45.590551,-38.946216)">
      <path
         d="m 163.05023,372.36218 0,-30.32226 -27.58789,-41.25977 11.52344,0 14.11133,21.58203 c 2.60414,4.03651 5.02926,8.07296 7.27539,12.10938 2.1484,-3.74345 4.75256,-7.95894 7.8125,-12.64649 l 13.86719,-21.04492 11.03515,0 -28.56445,41.25977 0,30.32226 z"
         id="path3022"
         inkscape:connector-curvature="0" />
      <path
         d="m 206.80023,337.4989 c 0,-11.88146 3.1901,-21.18321 9.57031,-27.90527 6.38019,-6.72194 14.61586,-10.08294 24.70704,-10.08301 6.60802,7e-5 12.56505,1.57885 17.87109,4.73633 5.30593,3.15762 9.35052,7.56028 12.13379,13.20801 2.78313,5.64783 4.17473,12.05245 4.1748,19.21386 -7e-5,7.25915 -1.46491,13.75328 -4.39453,19.48243 -2.92975,5.72917 -7.08014,10.06673 -12.45117,13.01269 -5.37114,2.94596 -11.16541,4.41894 -17.38281,4.41895 -6.73832,-1e-5 -12.76045,-1.62761 -18.06641,-4.88282 -5.306,-3.2552 -9.32618,-7.69855 -12.06055,-13.33007 -2.73438,-5.63149 -4.10156,-11.58852 -4.10156,-17.8711 z m 9.76563,0.14649 c -2e-5,8.62632 2.31932,15.42156 6.958,20.38574 4.63865,4.9642 10.45733,7.44629 17.45606,7.44629 7.12886,0 12.99637,-2.5065 17.60254,-7.51953 4.60606,-5.01301 6.90911,-12.12563 6.90918,-21.33789 -7e-5,-5.82679 -0.98476,-10.91304 -2.9541,-15.25879 -1.96946,-4.34565 -4.85032,-7.71479 -8.64258,-10.10743 -3.79237,-2.39251 -8.04855,-3.5888 -12.76856,-3.58886 -6.70576,6e-5 -12.47561,2.30312 -17.30957,6.90918 -4.834,4.60617 -7.25099,12.29659 -7.25097,23.07129 z"
         id="path3024"
         inkscape:connector-curvature="0" />
      <path
         d="m 334.38812,300.78015 9.47266,0 0,41.35742 c -7e-5,7.19404 -0.81387,12.90692 -2.44141,17.13868 -1.62766,4.23177 -4.56548,7.67415 -8.81347,10.32714 -4.2481,2.653 -9.82264,3.97949 -16.72364,3.9795 -6.70576,-1e-5 -12.19078,-1.1556 -16.45507,-3.4668 -4.26434,-2.31119 -7.30796,-5.65592 -9.13086,-10.03418 -1.82293,-4.37824 -2.73439,-10.35968 -2.73438,-17.94434 l 0,-41.35742 9.47266,0 0,41.3086 c -2e-5,6.21747 0.57778,10.79917 1.7334,13.74511 1.15557,2.94598 3.14125,5.21648 5.95703,6.81153 2.81572,1.59506 6.2581,2.39258 10.32715,2.39257 6.9661,10e-6 11.93029,-1.57876 14.89257,-4.73632 2.96219,-3.15754 4.44331,-9.2285 4.44336,-18.21289 z"
         id="path3026"
         inkscape:connector-curvature="0" />
      <path
         d="m 359.58344,372.36218 0,-71.58203 9.71679,0 37.59766,56.20117 0,-56.20117 9.08203,0 0,71.58203 -9.7168,0 -37.59765,-56.25 0,56.25 z"
         id="path3028"
         inkscape:connector-curvature="0" />
      <path
         d="m 432.14203,372.36218 0,-71.58203 51.75781,0 0,8.44727 -42.28515,0 0,21.92383 39.5996,0 0,8.39843 -39.5996,0 0,24.36524 43.94531,0 0,8.44726 z"
         id="path3030"
         inkscape:connector-curvature="0" />
      <path
         d="m 495.52094,349.36414 8.93554,-0.78125 c 0.42317,3.58075 1.40786,6.51857 2.9541,8.81347 1.54621,2.29494 3.94692,4.1504 7.20215,5.56641 3.25518,1.41602 6.91729,2.12403 10.98633,2.12402 3.61324,10e-6 6.80334,-0.5371 9.57031,-1.61133 2.76688,-1.0742 4.8258,-2.54719 6.17676,-4.41894 1.35086,-1.87173 2.02632,-3.91437 2.02637,-6.12793 -5e-5,-2.24607 -0.6511,-4.20733 -1.95313,-5.88379 -1.30213,-1.67641 -3.45057,-3.08428 -6.44531,-4.22363 -1.92061,-0.74867 -6.16866,-1.91241 -12.74414,-3.49121 -6.57555,-1.57875 -11.18166,-3.068 -13.81836,-4.46778 -3.41798,-1.79032 -5.96518,-4.012 -7.6416,-6.66504 -1.67644,-2.65294 -2.51466,-5.62332 -2.51465,-8.91113 -1e-5,-3.61322 1.02538,-6.9905 3.07617,-10.13184 2.05077,-3.1412 5.04556,-5.52564 8.98438,-7.15332 3.93878,-1.62753 8.31703,-2.44133 13.13476,-2.4414 5.30595,7e-5 9.98531,0.85456 14.03809,2.56347 4.05268,1.70906 7.16954,4.2237 9.35058,7.54395 2.18094,3.32037 3.35281,7.08013 3.51563,11.2793 l -9.08203,0.68359 c -0.48833,-4.52468 -2.14035,-7.94265 -4.95606,-10.25391 -2.81579,-2.31113 -6.97432,-3.46673 -12.47558,-3.46679 -5.7292,6e-5 -9.904,1.04987 -12.52442,3.14941 -2.62046,2.09967 -3.93068,4.63059 -3.93066,7.59278 -2e-5,2.57166 0.92772,4.68754 2.7832,6.34765 1.8229,1.6602 6.58364,3.36105 14.28223,5.10254 7.69853,1.74158 12.9801,3.26339 15.84473,4.56543 4.16661,1.92061 7.24278,4.35387 9.22851,7.2998 1.98562,2.946 2.97846,6.33955 2.97852,10.18067 -6e-5,3.80861 -1.09056,7.39747 -3.27149,10.7666 -2.18104,3.36915 -5.31418,5.98959 -9.39941,7.86133 -4.08533,1.87174 -8.68331,2.80761 -13.79395,2.80762 -6.47789,-1e-5 -11.90594,-0.94401 -16.28418,-2.83204 -4.37827,-1.88801 -7.81251,-4.72818 -10.30273,-8.5205 -2.49024,-3.79231 -3.80046,-8.08104 -3.93066,-12.86621 z"
         id="path3032"
         inkscape:connector-curvature="0" />
      <path
         d="m 562.31781,349.36414 8.93555,-0.78125 c 0.42316,3.58075 1.40786,6.51857 2.9541,8.81347 1.5462,2.29494 3.94692,4.1504 7.20215,5.56641 3.25518,1.41602 6.91728,2.12403 10.98633,2.12402 3.61324,10e-6 6.80334,-0.5371 9.57031,-1.61133 2.76688,-1.0742 4.82579,-2.54719 6.17676,-4.41894 1.35086,-1.87173 2.02631,-3.91437 2.02636,-6.12793 -5e-5,-2.24607 -0.65109,-4.20733 -1.95312,-5.88379 -1.30213,-1.67641 -3.45057,-3.08428 -6.44531,-4.22363 -1.92062,-0.74867 -6.16866,-1.91241 -12.74415,-3.49121 -6.57554,-1.57875 -11.18166,-3.068 -13.81835,-4.46778 -3.41799,-1.79032 -5.96519,-4.012 -7.64161,-6.66504 -1.67644,-2.65294 -2.51465,-5.62332 -2.51464,-8.91113 -10e-6,-3.61322 1.02538,-6.9905 3.07617,-10.13184 2.05077,-3.1412 5.04555,-5.52564 8.98437,-7.15332 3.93878,-1.62753 8.31703,-2.44133 13.13477,-2.4414 5.30595,7e-5 9.98531,0.85456 14.03808,2.56347 4.05269,1.70906 7.16955,4.2237 9.35059,7.54395 2.18093,3.32037 3.3528,7.08013 3.51562,11.2793 l -9.08203,0.68359 c -0.48833,-4.52468 -2.14034,-7.94265 -4.95605,-10.25391 -2.8158,-2.31113 -6.97432,-3.46673 -12.47559,-3.46679 -5.72919,6e-5 -9.90399,1.04987 -12.52441,3.14941 -2.62046,2.09967 -3.93068,4.63059 -3.93067,7.59278 -10e-6,2.57166 0.92772,4.68754 2.78321,6.34765 1.82289,1.6602 6.58363,3.36105 14.28222,5.10254 7.69853,1.74158 12.9801,3.26339 15.84473,4.56543 4.16661,1.92061 7.24278,4.35387 9.22852,7.2998 1.98561,2.946 2.97845,6.33955 2.97851,10.18067 -6e-5,3.80861 -1.09055,7.39747 -3.27148,10.7666 -2.18105,3.36915 -5.31418,5.98959 -9.39942,7.86133 -4.08533,1.87174 -8.6833,2.80761 -13.79394,2.80762 -6.47789,-1e-5 -11.90595,-0.94401 -16.28418,-2.83204 -4.37827,-1.88801 -7.81251,-4.72818 -10.30274,-8.5205 -2.49024,-3.79231 -3.80046,-8.08104 -3.93066,-12.86621 z"
         id="path3034"
         inkscape:connector-curvature="0" />
    </g>
    <g
       style="font-size:100px;font-style:normal;font-weight:normal;text-align:center;line-height:125%;letter-spacing:0px;word-spacing:0px;text-anchor:middle;fill:#000000;fill-opacity:1;stroke:none;font-family:Sans;-inkscape-font-specification:Sans"
       id="text2989"
       transform="matrix(0.8503937,0,0,0.83023761,45.590551,-38.946216)">
      <path
         d="m 142.75949,458.07648 0,-71.58203 51.75781,0 0,8.44726 -42.28515,0 0,21.92383 39.59961,0 0,8.39844 -39.59961,0 0,24.36523 43.94531,0 0,8.44727 z"
         id="path3007"
         inkscape:connector-curvature="0" />
      <path
         d="m 203.64816,458.07648 0,-8.78907 36.66992,-45.8496 c 2.60413,-3.25516 5.07809,-6.08718 7.42188,-8.4961 l -39.94141,0 0,-8.44726 51.26953,0 0,8.44726 -40.18554,49.6582 -4.34571,5.0293 45.70313,0 0,8.44727 z"
         id="path3009"
         inkscape:connector-curvature="0" />
      <path
         d="m 267.61301,423.2132 c -10e-6,-11.88147 3.19009,-21.18322 9.57031,-27.90528 6.38019,-6.72193 14.61586,-10.08293 24.70703,-10.08301 6.60803,8e-5 12.56505,1.57885 17.87109,4.73633 5.30593,3.15762 9.35052,7.56028 12.13379,13.20801 2.78313,5.64784 4.17473,12.05245 4.17481,19.21387 -8e-5,7.25914 -1.46492,13.75327 -4.39453,19.48242 -2.92976,5.72918 -7.08014,10.06674 -12.45118,13.01269 -5.37114,2.94597 -11.16541,4.41895 -17.38281,4.41895 -6.73831,0 -12.76044,-1.6276 -18.0664,-4.88281 -5.30601,-3.2552 -9.32619,-7.69856 -12.06055,-13.33008 -2.73438,-5.63149 -4.10157,-11.58851 -4.10156,-17.87109 z m 9.76562,0.14648 c -10e-6,8.62633 2.31932,15.42157 6.95801,20.38574 4.63865,4.9642 10.45732,7.4463 17.45605,7.44629 7.12886,10e-6 12.99637,-2.5065 17.60254,-7.51953 4.60606,-5.013 6.90912,-12.12562 6.90918,-21.33789 -6e-5,-5.82678 -0.98476,-10.91304 -2.9541,-15.25879 -1.96946,-4.34565 -4.85031,-7.71478 -8.64258,-10.10742 -3.79236,-2.39252 -8.04854,-3.5888 -12.76855,-3.58887 -6.70576,7e-5 -12.47561,2.30312 -17.30957,6.90918 -4.834,4.60617 -7.25099,12.2966 -7.25098,23.07129 z"
         id="path3011"
         inkscape:connector-curvature="0" />
      <path
         d="m 395.2009,386.49445 9.47265,0 0,41.35742 c -6e-5,7.19403 -0.81386,12.90692 -2.4414,17.13867 -1.62767,4.23178 -4.56549,7.67416 -8.81348,10.32715 -4.24809,2.65299 -9.82263,3.97949 -16.72363,3.97949 -6.70576,0 -12.19078,-1.1556 -16.45508,-3.4668 -4.26434,-2.31119 -7.30796,-5.65591 -9.13086,-10.03418 -1.82293,-4.37823 -2.73438,-10.35967 -2.73437,-17.94433 l 0,-41.35742 9.47265,0 0,41.30859 c -2e-5,6.21747 0.57778,10.79917 1.7334,13.74512 1.15558,2.94597 3.14125,5.21648 5.95703,6.81152 2.81573,1.59506 6.25811,2.39259 10.32715,2.39258 6.9661,1e-5 11.93029,-1.57877 14.89258,-4.73633 2.96218,-3.15754 4.4433,-9.22849 4.44336,-18.21289 z"
         id="path3013"
         inkscape:connector-curvature="0" />
      <path
         d="m 412.63254,458.07648 27.49023,-71.58203 10.20508,0 29.29688,71.58203 -10.79102,0 -8.34961,-21.67969 -29.93164,0 -7.86133,21.67969 z m 20.65429,-29.39453 24.26758,0 -7.4707,-19.82422 c -2.27868,-6.02208 -3.97139,-10.96999 -5.07813,-14.84375 -0.91148,4.5899 -2.19729,9.14719 -3.85742,13.67187 z"
         id="path3015"
         inkscape:connector-curvature="0" />
      <path
         d="m 520.78683,430.00031 0,-8.39844 30.32227,-0.0488 0,26.5625 c -4.65501,3.71094 -9.45644,6.50228 -14.4043,8.37402 -4.94797,1.87175 -10.02609,2.80762 -15.23437,2.80762 -7.03129,0 -13.41963,-1.50553 -19.16504,-4.5166 -5.74546,-3.01106 -10.08302,-7.3649 -13.0127,-13.06152 -2.92969,-5.6966 -4.39453,-12.06052 -4.39453,-19.0918 0,-6.96611 1.4567,-13.46838 4.37012,-19.50684 2.9134,-6.03835 7.10448,-10.52239 12.57324,-13.45215 5.46872,-2.92961 11.76755,-4.39445 18.89649,-4.39453 5.17573,8e-5 9.85509,0.83829 14.03808,2.51465 4.18289,1.6765 7.4625,4.01211 9.83887,7.00684 2.37623,2.99485 4.18287,6.9011 5.41992,11.71875 l -8.54492,2.34375 c -1.07428,-3.64578 -2.40891,-6.51036 -4.00391,-8.59375 -1.5951,-2.08328 -3.87375,-3.75157 -6.83593,-5.00489 -2.96229,-1.25319 -6.25005,-1.87981 -9.86329,-1.87988 -4.32946,7e-5 -8.07295,0.65925 -11.23046,1.97754 -3.15758,1.31842 -5.70478,3.05182 -7.64161,5.2002 -1.93686,2.14849 -3.4424,4.50851 -4.5166,7.08007 -1.82293,4.42713 -2.73439,9.22856 -2.73437,14.4043 -2e-5,6.38024 1.09861,11.71878 3.2959,16.01563 2.19724,4.29689 5.39548,7.48699 9.59472,9.57031 4.19919,2.08334 8.65882,3.12501 13.37891,3.125 4.10152,10e-6 8.10542,-0.78938 12.01172,-2.36817 3.90619,-1.57876 6.86843,-3.26333 8.88672,-5.05371 l 0,-13.33007 z"
         id="path3017"
         inkscape:connector-curvature="0" />
      <path
         d="m 565.31808,458.07648 0,-71.58203 9.47266,0 0,29.39453 37.20703,0 0,-29.39453 9.47266,0 0,71.58203 -9.47266,0 0,-33.74024 -37.20703,0 0,33.74024 z"
         id="path3019"
         inkscape:connector-curvature="0" />
    </g>
    <path
       transform="translate(37.142857,2.8571429)"
       style="fill:#000000"
       d="m 512.78125,353.0625 c -2.27886,-0.0946 -9.36459,5.19373 -29.625,21.125 -5.45903,4.29257 -10.48938,7.48273 -18.28125,11.59375 -29.04319,15.3233 -55.00364,39.00977 -79.125,72.25 -4.14202,5.70787 -8.43749,11.61501 -9.5625,13.125 -2.94034,3.94652 -9.2819,7.6059 -13.21875,7.625 -7.6677,0.0373 -8.75827,-2.35443 -11.59375,-24.90625 -1.91505,-15.23128 -6.24479,-20.75335 -16.1875,-20.71875 -1.16929,0.004 -4.72345,-0.81112 -7.875,-1.8125 -6.84553,-2.17511 -7.40107,-1.85072 -5.5,3.375 l 1.46875,4.03125 -1.1875,2.78125 c -0.65223,1.53847 -1.61131,5.48363 -2.125,8.75 -0.51371,3.26637 -1.72352,7.7107 -2.6875,9.90625 -0.96396,2.19554 -2.49795,6.61248 -3.40625,9.8125 -3.95252,13.92503 -15.19411,12.06798 -26.53125,-4.40625 -26.02283,-37.8143 -52.8176,-62.78489 -87.21875,-81.28125 -4.35118,-2.33949 -12.87495,-8.11301 -18.96875,-12.8125 -19.86109,-15.31669 -23.7586,-18.0625 -25.4375,-18.0625 l -1.65625,0 0,1.78125 c 0,5.9578 13.46273,21.63359 28.5625,33.21875 2.98589,2.2909 5.4375,4.31841 5.4375,4.5 0,0.18159 -7.01524,-3.22956 -15.59375,-7.5625 -8.57851,-4.33294 -16.42782,-7.875 -17.4375,-7.875 l -1.84375,0 0,2.125 0,2.125 4.46875,4.34375 c 5.43077,5.27663 13.37886,10.84317 21.90625,15.375 8.07275,4.29022 7.79099,4.28612 -8.59375,-0.71875 -7.47447,-2.28315 -14.53653,-4.15625 -15.6875,-4.15625 l -2.09375,0 0,2.34375 c 0,4.4633 10.47525,11.36373 25.53125,16.84375 7.69882,2.80219 7.24938,2.88924 -4.25,0.75 -29.6075,-5.50792 -21.39591,6.34605 9.78125,14.125 L 193.59375,433 179.125,433.0625 c -7.95118,0.0404 -15.01718,0.43835 -15.71875,0.875 l -1.28125,0.8125 0.9375,1.46875 c 2.24756,3.56451 18.70608,8.56437 33.21875,10.09375 l 5.8125,0.625 -8.5,0.625 c -12.88162,0.94147 -20.10683,1.95278 -21.15625,3 l -0.96875,0.9375 2.5625,2.03125 c 4.14972,3.27033 15.10376,5.99615 25.09375,6.25 l 3.8125,0.0937 -3.40625,0.625 c -1.87087,0.33923 -6.76265,1.11341 -10.90625,1.71875 -4.70127,0.68682 -8.23894,1.65021 -9.375,2.59375 l -1.8125,1.53125 1.6875,1.28125 c 4.30115,3.24327 15.29311,4.72002 26.75,3.59375 3.94114,-0.38741 7.26491,-0.60675 7.40625,-0.46875 0.14135,0.13801 -4.02946,1.86683 -9.28125,3.84375 -10.4328,3.92721 -12.75181,5.17241 -13.03125,7.03125 -0.54822,3.6467 13.16814,3.76016 24.71875,0.1875 l 6.8125,-2.125 -2.96875,2.5625 c -1.63701,1.40046 -5.56167,4.75239 -8.71875,7.46875 l -5.75,4.9375 0,2.125 0,2.125 6.25,-0.3125 6.25,-0.3125 L 221.09375,496 c 4.41785,-2.8543 4.39434,-2.69415 -0.34375,4.0625 l -3.875,5.53125 0.28125,2.5625 0.25,2.59375 4.0625,0.25 4.09375,0.25 3,-1.8125 c 1.65569,-0.99903 4.57074,-3.72518 6.46875,-6.0625 l 3.4375,-4.25 -0.65625,2.09375 c -0.36072,1.14158 -2.70833,5.90613 -5.21875,10.59375 -7.45933,13.92866 -4.65899,17.80228 9.125,12.6875 2.53398,-0.94028 4.65105,-1.71852 4.71875,-1.71875 0.0677,-2.2e-4 -0.2177,1.41264 -0.625,3.125 -2.47272,10.39567 1.40159,14.8381 9,10.3125 l 2.5625,-1.53125 -0.25,3.40625 -0.25,3.375 1.71875,2.6875 1.71875,2.71875 2.53125,0 c 1.59772,0 3.62263,-0.91305 5.4375,-2.46875 l 2.875,-2.46875 0.96875,3.125 c 0.52996,1.72691 1.87998,4.00658 3.03125,5.0625 l 2.09375,1.9375 2.03125,-0.5 c 1.13461,-0.27802 2.73222,-1.78775 3.625,-3.40625 l 1.59375,-2.875 1.03125,2.34375 c 2.617,6.07647 7.10455,7.41832 9.8125,2.9375 l 1.78125,-2.9375 1.6875,1.75 c 3.61058,3.78362 8.35458,3.83146 10.34375,0.125 l 1.15625,-2.125 0.59375,2.59375 c 1.32685,5.89786 -2.91796,14.44464 -10.34375,20.90625 l -4.84375,4.21875 -6.84375,2.6875 -6.84375,2.65625 -10.625,0.0312 c -5.84646,0.0117 -12.22,-0.29471 -14.15625,-0.6875 l -3.53125,-0.71875 -1.78125,1.75 -1.78125,1.75 0,3.53125 c 0.0186,4.67988 3.02528,9.74212 7.03125,11.84375 l 3.15625,1.65625 0,3.71875 c 0.007,4.86316 2.29644,8.42035 7.1875,11.21875 2.50757,1.4347 3.875,2.79498 3.875,3.84375 0,4.42987 4.78366,9.32067 10.5625,10.78125 l 3.46875,0.875 1.6875,3.46875 c 0.93543,1.90137 3.00451,4.28443 4.59375,5.3125 l 2.90625,1.875 4.125,0 4.125,0 0,1.1875 c 0,2.09596 4.15117,6.05755 7.84375,7.5 l 3.59375,1.40625 3.46875,-0.5 3.5,-0.53125 3.125,2.875 c 1.71829,1.58214 3.9775,3.05194 5.03125,3.25 6.16186,1.15821 10.37424,0.16779 13.875,-3.25 l 2.8125,-2.75 4.09375,0.4375 4.09375,0.4375 3.84375,-1.90625 c 2.48003,-1.24766 4.39777,-3.01501 5.5,-5.03125 l 1.71875,-3.125 3.90625,0 3.90625,0 2.875,-1.875 c 1.56831,-1.03183 3.62101,-3.43661 4.5625,-5.34375 L 382.3125,630 l 3.8125,-0.9375 c 4.6177,-1.13519 9.1258,-5.46972 9.90625,-9.53125 l 0.5625,-2.875 L 400.875,614 c 4.68787,-2.93689 6.5879,-6.1871 6.625,-11.28125 l 0,-3.125 3.40625,-2.0625 c 2.12401,-1.27935 4.0624,-3.38718 5.1875,-5.65625 l 1.78125,-3.625 -0.46875,-3.4375 c -0.57338,-4.1735 -2.60274,-5.86971 -6.125,-5.15625 -1.40315,0.28423 -6.84967,0.71773 -12.125,0.96875 l -9.59375,0.46875 -7.1875,-2.1875 C 366.04392,573.93518 354.66077,560.94779 356.8125,549.75 l 0.625,-3.28125 1.125,2.625 c 1.89049,4.38989 6.83525,4.36214 10.375,-0.0312 l 1.65625,-2.0625 1.0625,2.8125 c 1.90293,5.13773 7.1529,4.23811 10.0625,-1.71875 l 1.375,-2.875 1.28125,2.5625 c 0.69922,1.4095 2.12731,2.94854 3.15625,3.40625 l 1.875,0.84375 1.78125,-0.96875 c 1.95969,-1.02394 5.2083,-6.54227 5.25,-8.9375 l 0.0312,-1.5 0.9375,1.6875 c 4.57788,8.12709 15.60634,3.49913 13.1875,-5.53125 -0.49627,-1.85275 -0.51515,-1.86366 2.53125,-0.3125 1.33969,0.68213 3.65739,1.248 5.1875,1.25 l 2.8125,0.0312 0.96875,-2.125 0.96875,-2.09375 -0.96875,-5.09375 c -1.18577,-6.225 -1.47031,-5.95871 4.0625,-3.90625 2.50611,0.92968 6.06476,1.7408 7.90625,1.8125 l 3.34375,0.125 1.15625,-1.5625 c 1.58819,-2.12049 0.92951,-4.30349 -4.4375,-14.53125 -5.56792,-10.61064 -5.66273,-11.65362 -0.625,-6.03125 4.51808,5.04241 7.54056,6.8125 11.6875,6.8125 7.54263,0 7.53001,-3.10856 -0.0937,-13.46875 l -3.03125,-4.125 4.75,2.625 4.75,2.59375 5.375,-0.21875 5.375,-0.25 0.28125,-1.59375 0.3125,-1.5625 -5.3125,-4.65625 c -2.92616,-2.56163 -6.89765,-6.02624 -8.8125,-7.71875 l -3.46875,-3.09375 6.8125,2.09375 c 11.85054,3.6589 23.49541,3.57179 24.0625,-0.1875 l 0.25,-1.65625 -4.09375,-1.8125 c -2.24243,-0.99195 -7.13326,-2.95657 -10.875,-4.375 -3.74173,-1.41843 -6.89019,-2.67566 -7,-2.78125 -0.10982,-0.10558 5.08702,-0.0143 11.5625,0.1875 11.37863,0.35453 13.9106,0.044 20.75,-2.5 5.88576,-2.18929 2.47031,-4.96535 -7.875,-6.4375 -3.97559,-0.56573 -8.75413,-1.32835 -10.625,-1.6875 l -3.40625,-0.65625 4.25,-0.125 c 12.95071,-0.35903 29.3855,-6.15832 26.21875,-9.25 -0.85486,-0.8346 -9.50741,-2.02028 -21.53125,-2.96875 -4.4433,-0.35051 -6.9344,-0.74521 -5.53125,-0.875 12.86752,-1.19024 23.1228,-3.53579 30.875,-7.0625 l 5.34375,-2.4375 -0.25,-1.8125 -0.25,-1.8125 -14.03125,-0.40625 -14.03125,-0.40625 2.53125,-0.6875 c 1.40315,-0.37676 5.93641,-1.60791 10.0625,-2.71875 12.5256,-3.37219 22.6875,-9.15707 22.6875,-12.9375 l 0,-1.5 -4.90625,0 c -2.68937,0.004 -8.64455,0.74729 -13.25,1.65625 -11.05412,2.18171 -11.62284,2.02637 -3.625,-0.875 7.46312,-2.70739 14.22107,-6.22253 20.28125,-10.53125 l 4.0625,-2.875 0,-2.8125 0,-2.84375 -1.65625,0 c -0.90933,0 -7.85568,1.8731 -15.4375,4.15625 -7.58182,2.28315 -14.01404,4.15625 -14.28125,4.15625 -0.26722,0 2.37846,-1.61269 5.875,-3.5625 10.39014,-5.79395 15.91755,-9.63663 20.84375,-14.5625 l 4.65625,-4.65625 0,-2.3125 0,-2.3125 -1.59375,0 c -1.49052,0 -7.28571,2.75016 -26.5,12.59375 -4.4433,2.27634 -7.33724,3.55647 -6.4375,2.84375 22.15903,-17.55303 34.53125,-31.22768 34.53125,-38.1875 0,-1.02671 -0.24038,-1.65597 -1,-1.6875 z m -355.21875,4.125 c 0.19283,-0.18826 2.30212,1.09914 4.6875,2.875 4.49548,3.34677 6.27852,5.8125 4.1875,5.8125 -0.64864,0 -1.7087,0.19959 -2.34375,0.4375 -1.09699,0.41097 -7.35031,-8.32535 -6.53125,-9.125 z m 349.5625,1.90625 c 1.48725,-0.40574 1.66654,0.92098 0.125,3.46875 -1.77558,2.93457 -2.09897,3.01638 -3.46875,0.875 l -1.03125,-1.625 2.46875,-1.71875 c 0.77188,-0.5366 1.4105,-0.86475 1.90625,-1 z m -6,4.0625 0.90625,0.875 c 1.30143,1.27058 1.53054,4.94389 0.375,5.84375 -0.54114,0.42141 -1.81531,1.03619 -2.84375,1.34375 l -1.875,0.5625 L 495.875,370 l -1.8125,-1.78125 3.53125,-2.53125 3.53125,-2.53125 z m -332.8125,2.71875 0.9375,0 c 0.52498,0 0.96875,0.3581 0.96875,0.78125 0,0.42315 0.61897,0.88361 1.375,1.03125 l 1.375,0.25 -1.78125,2.09375 -1.75,2.0625 0.5,-1.875 c 0.26482,-1.02984 -0.0136,-2.41124 -0.59375,-3.09375 l -1.03125,-1.25 z m 324.46875,4.125 1.84375,1.65625 c 1.00653,0.92317 2.33271,1.6875 2.96875,1.6875 0.75073,0 0.45286,0.74629 -0.84375,2.09375 -2.48969,2.58734 -3.40688,2.57544 -6.21875,0.0312 l -2.25,-2.03125 2.25,-1.71875 2.25,-1.71875 z m -316.75,1.75 c 1.46988,0.37267 3.61237,1.87433 7.53125,4.8125 4.11945,3.08854 10.16348,7.05903 13.4375,8.8125 8.83488,4.73171 23.58852,13.95678 29.53125,18.46875 2.87434,2.18231 5.6301,4.23904 6.125,4.5625 l 0.90625,0.5625 L 232.5,410 c -0.58074,0.56697 -1.0625,1.57454 -1.0625,2.21875 l 0,1.15625 1.5,-1.5625 c 0.8185,-0.85935 1.19453,-1.19346 0.84375,-0.75 -1.12106,1.41722 -0.69715,2.3897 0.59375,1.34375 l 1.25,-1.03125 2.375,1.6875 c 7.86324,5.57613 29.37066,29.27892 41.4375,45.65625 l 3.25,4.40625 -0.96875,2.0625 c -1.47001,3.14985 -1.19086,3.625 1.96875,3.625 l 2.90625,0 0.28125,1.875 c 0.14945,1.02742 0.54676,1.69707 0.875,1.46875 0.32826,-0.22831 2.03602,0.93953 3.8125,2.625 1.77648,1.68547 4.3781,3.66598 5.78125,4.375 l 2.5625,1.28125 -2.125,0.0625 c -1.16929,0.0283 -5.20327,0.0988 -8.9375,0.1875 l -6.78125,0.1875 -0.25,1.21875 c -0.13075,0.68494 0.93005,1.90727 2.34375,2.6875 3.08173,1.70083 3.52013,2.74066 6.65625,15.8125 l 2.4375,10.15625 -1.0625,3.75 c -4.45707,15.45907 -4.8478,16.17548 -9.21875,17.28125 -1.44047,0.36443 -2.7521,1.3123 -2.90625,2.09375 l -0.28125,1.40625 14.25,-0.21875 14.21875,-0.21875 0.375,-1.0625 c 0.36283,-1.06527 -0.2372,-1.35363 -4.28125,-2.21875 l -2.3125,-0.5 0,-1.84375 c -10e-5,-1.01872 0.97689,-5.13891 2.1875,-9.15625 l 2.1875,-7.3125 9,-12.0625 c 9.65102,-12.95523 13.20698,-16.90625 15.21875,-16.90625 0.75418,0 1.16986,-0.60766 1,-1.46875 l -0.28125,-1.4375 -8.5,0 -8.46875,0 -0.25,1.25 c -0.13528,0.68581 0.62319,1.60674 1.6875,2.0625 3.12432,1.33795 2.75093,3.82781 -1.4375,9.59375 -2.13256,2.93577 -4.96825,6.99442 -6.3125,9 l -2.4375,3.65625 -1.4375,-6.15625 c -0.78825,-3.37547 -1.65331,-7.83623 -1.90625,-9.90625 l -0.46875,-3.75 1.34375,-1.0625 c 0.72481,-0.58729 2.37137,-1.34385 3.6875,-1.6875 1.31612,-0.34364 2.4255,-0.98247 2.4375,-1.40625 0.012,-0.42378 1.21734,-1.93186 2.6875,-3.34375 1.56343,-1.50147 3.04736,-4.07822 3.59375,-6.21875 0.5138,-2.01283 2.07478,-6.6788 3.46875,-10.375 1.39398,-3.69618 2.75712,-8.5725 3.03125,-10.8125 0.27414,-2.23999 1.30576,-6.07384 2.28125,-8.53125 l 1.78125,-4.46875 -0.9375,-2.375 c -1.19801,-3.09863 -0.66881,-3.3102 4.875,-1.90625 2.55005,0.6458 5.59696,1.1855 6.78125,1.1875 7.19461,0.0104 10.5833,6.00919 12.75,22.65625 1.88178,14.458 3.0452,18.36168 6.21875,20.96875 l 2.46875,2.03125 3.75,0 c 3.83852,0 10.53665,-2.49919 12.34375,-4.625 0.54879,-0.64558 1.53162,-1.1875 2.1875,-1.1875 0.65588,0 1.50134,-0.86651 1.90625,-1.90625 0.4049,-1.03973 1.95187,-3.10499 3.40625,-4.625 1.45439,-1.52002 2.64825,-3.40543 2.65625,-4.15625 0.0175,-1.56428 11.77612,-17.07361 20.84375,-27.5 17.36161,-19.9632 36.62512,-35.81752 58.1875,-47.875 4.76481,-2.66443 11.71682,-6.83313 15.4375,-9.25 l 6.75,-4.375 2.53125,2.4375 2.5,2.46875 -6.28125,4.84375 c -11.80071,9.08198 -12.83751,9.8105 -13.6875,9.8125 -0.46771,0.001 -0.97555,0.84758 -1.125,1.875 l -0.25,1.875 1.8125,0 c 1.00258,0 9.71076,-3.97711 19.34375,-8.8125 9.63298,-4.8354 18.51194,-9.15169 19.71875,-9.59375 l 2.1875,-0.78125 -4.6875,4.625 c -5.38457,5.35149 -15.07653,11.92538 -25.75,17.46875 l -7.40625,3.875 0,1.65625 0,1.65625 2.75,-0.5625 c 2.40653,-0.48181 12.87292,-3.54054 29.78125,-8.71875 l 4.875,-1.5 -0.0312,0.96875 c -0.0762,2.78679 -15.45058,11.31103 -27.96875,15.5 l -9,3 -0.25,1.8125 -0.28125,1.8125 2.21875,0 c 1.22856,0 3.85145,-0.3551 5.8125,-0.78125 5.38904,-1.17108 17.4918,-3.21824 22.28125,-3.78125 l 4.25,-0.5 -2.9375,2.53125 c -3.7885,3.26215 -12.78832,6.86548 -23.21875,9.3125 l -8.28125,1.9375 0,2.8125 0,2.78125 10.5625,-0.59375 c 5.81063,-0.32734 11.80976,-0.32893 13.34375,0 l 2.78125,0.59375 -3.3125,1.6875 c -4.30951,2.1585 -12.35629,4.3835 -20.4375,5.65625 l -6.4375,1 -1.25,-1.1875 -1.15625,0.8125 c -0.66551,0.46129 -3.84468,1.09076 -7.0625,1.40625 l -5.84375,0.5625 0.28125,1.375 c 0.15125,0.77943 1.16452,1.4183 2.375,1.5 10.32119,0.69651 27.50092,2.10119 30.59375,2.5 l 3.84375,0.5 -3.84375,1.65625 c -6.78363,2.95706 -12.71487,3.87565 -25.71875,3.90625 l -12.53125,0 0,1.21875 c 0,1.52459 0.82836,1.75614 13.59375,3.78125 5.84646,0.92749 13.31973,2.10311 16.59375,2.625 l 5.9375,0.9375 -3.40625,1.5 c -6.27768,2.74514 -17.90302,2.81956 -34.5625,0.21875 l -3.25,-0.53125 0,1.34375 c 0,1.64986 4.17256,3.76922 16.90625,8.5625 5.42814,2.04329 10.25103,4.09001 10.71875,4.5625 l 0.84375,0.875 -8.0625,-0.40625 -8.09375,-0.375 -7.875,-2.65625 c -8.688,-2.91057 -10.45178,-2.75604 -8.1875,0.65625 1.5779,2.3779 1.75249,2.50825 11.59375,10.75 7.39295,6.19137 7.51822,7.68547 0.59375,6.125 -4.63466,-1.04445 -9.89778,-4.21247 -13.9375,-8.375 -2.57406,-2.65231 -4.7224,-3.35575 -4.6875,-1.53125 0.0258,1.34598 3.60106,7.33413 8.78125,14.71875 8.21965,11.71753 -1.92125,10.73076 -11.25,-1.09375 -2.04467,-2.5917 -4.26155,-4.6875 -4.90625,-4.6875 l -1.15625,0 0,3.25 0,3.25 5.21875,9.96875 c 7.04606,13.48416 6.25179,14.8104 -6.0625,10.0625 -8.07171,-3.11211 -7.95015,-3.13371 -7.34375,1.0625 0.28045,1.94067 0.74195,5.44282 1.03125,7.78125 l 0.53125,4.25 -1,0.59375 c -0.55477,0.33473 -2.93363,-0.34213 -5.28125,-1.53125 -2.34761,-1.18912 -4.78804,-2.15625 -5.4375,-2.15625 l -1.1875,0 0.53125,3.6875 c 0.31611,2.25157 0.0838,4.72673 -0.5625,6.25 l -1.0625,2.5 -1.9375,0 c -1.84729,0 -6.34375,-4.16589 -6.34375,-5.875 0,-0.42159 -0.78332,-0.75 -1.71875,-0.75 -1.10934,0 -1.6875,0.52436 -1.6875,1.5625 0,9.13732 -6.42955,11.8211 -9.75,4.0625 l -1.28125,-3.03125 2.15625,-1.53125 2.1875,-1.5625 0.4375,-3.34375 0.46875,-3.34375 -1.4375,-1.40625 c -1.9435,-1.89743 -5.18341,-1.73487 -7.3125,0.34375 l -1.75,1.71875 0.21875,3.21875 c 0.44153,5.97022 -1.62748,4.81768 -3.5,-1.9375 -0.60606,-2.18635 -1.95916,-4.64544 -3.03125,-5.46875 l -1.96875,-1.5 7.21875,-8.625 c 3.96053,-4.75304 8.70801,-10.39167 10.5625,-12.53125 1.85449,-2.13958 3.375,-4.4925 3.375,-5.21875 l 0,-1.3125 -12.96875,0.21875 -12.96875,0.25 -0.96875,4.125 c -2.02193,8.50881 -1.11163,10.72425 2.75,6.65625 l 1.96875,-2.0625 5.125,0 c 6.04636,0 6.17485,0.27493 1.9375,5.0625 -15.76606,17.81326 -18.95066,23.15625 -13.8125,23.15625 1.62228,0 3.97422,1.0626 6.40625,2.875 3.86986,2.88391 8.42707,4.28388 11.375,3.53125 l 1.59375,-0.375 -0.46875,1.75 c -2.18098,8.38256 -6.95281,9.80145 -8.5,2.53125 -0.74622,-3.50642 -3.59375,-5.21344 -3.59375,-2.15625 0,2.02257 -4.4299,6.78125 -6.3125,6.78125 -1.45217,0 -2.29397,-1.42079 -2.625,-4.4375 -0.32503,-2.96192 -0.34514,-3.03125 -1.625,-3.03125 -0.67833,0 -1.60502,0.60017 -2.03125,1.34375 l -0.75,1.34375 -0.59375,-0.9375 c -0.81487,-1.28723 -3.0625,-1.16912 -3.0625,0.15625 0,0.59362 0.43545,1.51059 0.96875,2.03125 0.5333,0.52065 1.07893,3.16214 1.1875,5.875 0.48496,12.11795 10.66967,23.48375 25.21875,28.09375 2.88372,0.91372 4.99558,2.07825 5.21875,2.90625 l 0.375,1.40625 -1.25,-0.46875 -1.25,-0.46875 0.28125,2.40625 0.28125,2.375 1.9375,0.28125 1.90625,0.25 0,-1.34375 c 0,-0.74365 0.31902,-1.14744 0.71875,-0.90625 0.39973,0.24119 1.6338,-0.4975 2.71875,-1.625 l 1.96875,-2.03125 5.71875,0 c 3.15681,0 7.67821,-0.4386 10.03125,-0.96875 l 4.28125,-0.96875 1.3125,1.0625 c 3.40436,2.75838 0.1131,10.6859 -5.71875,13.75 l -3.1875,1.65625 0,4.3125 0,4.34375 -2.53125,2.8125 c -1.401,1.55782 -3.62423,3.28142 -4.9375,3.8125 l -2.40625,0.96875 -1,3.5 c -1.68007,5.81025 -6.51735,9.71875 -12.03125,9.71875 l -2.59375,0 0,1.6875 c 0,3.08259 -2.53834,6.55722 -6.0625,8.3125 l -3.46875,1.75 -3.125,-0.53125 -3.125,-0.53125 -1.4375,3.1875 c -2.12571,4.70383 -11.96873,8.99319 -13.84375,6.03125 -0.93964,-1.48434 -3.83129,-0.83909 -4.71875,1.0625 -0.4834,1.03578 -2.13293,2.73095 -3.65625,3.75 -5.16598,3.45588 -12.76853,1.84785 -15.46875,-3.25 l -1.34375,-2.53125 -1.84375,0.59375 c -1.01694,0.32803 -3.37913,0.74514 -5.25,0.9375 l -3.40625,0.34375 L 309.8125,646.5 c -1.66413,-1.01316 -3.42428,-3.0925 -4.25,-5.03125 l -1.40625,-3.3125 -3.09375,0.46875 c -5.70561,0.91547 -11.45378,-2.76999 -12.5625,-8.0625 l -0.5625,-2.71875 -3.53125,-0.59375 c -6.0249,-1.00414 -11.3125,-6.22015 -11.3125,-11.21875 0,-0.92073 -1.48256,-2.27596 -3.90625,-3.53125 -5.1998,-2.69311 -6.66146,-5.03936 -6.53125,-10.46875 l 0.125,-4.375 -1.96875,-0.46875 c -1.07242,-0.26277 -3.33426,-1.97867 -5.03125,-3.8125 l -3.09375,-3.34375 0,-3.21875 c 0,-1.76929 0.53094,-3.65553 1.1875,-4.1875 l 1.21875,-0.96875 5.59375,1.03125 c 3.57532,0.64316 5.625,1.39146 5.625,2.09375 0,1.56793 2.48873,1.36878 3.125,-0.25 l 0.53125,-1.34375 5.9375,0.53125 5.96875,0.53125 1.78125,-1.4375 c 0.98299,-0.79647 1.3034,-0.9 0.71875,-0.25 -2.05669,2.28659 -1.23685,3.3125 2.625,3.3125 l 3.71875,0 3.9375,-4.1875 c 2.17439,-2.30455 3.96675,-4.63811 3.96875,-5.1875 0.001,-0.54939 1.16135,-1.74299 2.59375,-2.65625 6.42132,-4.09407 11.84237,-13.77651 12.21875,-21.8125 0.0913,-1.94862 0.63438,-3.95999 1.1875,-4.5 1.53086,-1.49457 1.1923,-2.56569 -0.65625,-2.09375 -0.96932,0.24748 -2.23904,-0.20541 -3.0625,-1.09375 -1.89355,-2.04274 -3.61956,-1.22288 -3.9375,1.875 -0.14359,1.39913 -0.92763,2.95402 -1.71875,3.4375 l -1.4375,0.875 -1.875,-1.625 c -1.02736,-0.89407 -2.38795,-2.82845 -3.03125,-4.3125 -1.57852,-3.64153 -3.36389,-3.44621 -4,0.4375 -0.28241,1.72425 -1.04819,3.8547 -1.71875,4.75 l -1.21875,1.625 -1.75,-1.53125 c -0.96087,-0.84896 -2.37432,-3.18859 -3.15625,-5.1875 -1.74769,-4.46779 -3.1817,-4.60041 -4.875,-0.46875 -0.71239,1.73822 -1.88345,3.64915 -2.625,4.25 l -1.34375,1.09375 -1.28125,-1.03125 c -0.69549,-0.56352 -2.08957,-3.21745 -3.09375,-5.90625 -2.14461,-5.74236 -2.90962,-5.93733 -6.03125,-1.53125 l -2.34375,3.28125 -2.09375,0 c -2.87902,0 -4.14886,-2.65105 -3.65625,-7.65625 l 0.40625,-4.09375 -1.15625,-0.4375 c -0.62485,-0.2341 -2.37429,0.31315 -3.90625,1.21875 -1.53195,0.9056 -3.63237,1.88517 -4.65625,2.1875 l -1.84375,0.5625 -0.84375,-1.53125 -0.84375,-1.53125 1.1875,-5.34375 c 1.74999,-7.97057 0.81164,-10.67252 -2.625,-7.53125 -1.33976,1.22461 -11.45825,4.49617 -12.0625,3.90625 -0.30919,-0.30187 0.86069,-1.95476 2.59375,-3.6875 1.73306,-1.73275 2.8603,-3.42949 2.5,-3.78125 -0.3603,-0.35182 -0.14311,-0.52721 0.5,-0.375 0.64311,0.15221 1.34813,-0.17921 1.5625,-0.75 0.21438,-0.57078 -0.13562,-1.03125 -0.78125,-1.03125 -1.57148,0 -7.67406,6.15739 -6.875,6.9375 0.34604,0.33784 -0.0201,0.35936 -0.8125,0.0625 l -1.4375,-0.53125 4.75,-8.875 c 3.01024,-5.64222 4.90149,-10.33513 5.1875,-12.8125 l 0.4375,-3.875 -1.625,0 c -0.89541,0 -2.26049,1.02552 -3.03125,2.28125 -3.9563,6.44571 -12.3923,12.70722 -15.53125,11.53125 -2.20281,-0.82526 -1.48938,-2.52741 5.09375,-12.125 8.64314,-12.60086 8.55185,-15.0484 -0.28125,-7.625 -5.66743,4.76296 -8.9312,6.52698 -13.5625,7.25 -5.10599,0.79713 -4.95931,-0.6778 0.46875,-5.15625 17.93855,-14.80033 18.56211,-17.25072 3.21875,-12.34375 l -9.0625,2.875 -6.5,0 -6.5,0 0.875,-0.84375 c 0.48564,-0.47412 5.29267,-2.50159 10.6875,-4.5 12.35231,-4.57565 16.84375,-6.78437 16.84375,-8.34375 0,-1.51164 0.39075,-1.52263 -12.1875,0.0937 -6.41211,0.82395 -12.61976,1.13524 -16.28125,0.8125 l -5.90625,-0.53125 -1.59375,-1.6875 c -2.10482,-2.20571 -2.53249,-2.04095 8.75,-3.59375 5.37874,-0.74027 11.69267,-1.74358 14.03125,-2.21875 2.33858,-0.47517 5.10388,-1.03914 6.15625,-1.25 1.05236,-0.21085 1.90625,-0.91751 1.90625,-1.59375 l 0,-1.25 -12.53125,0 c -13.27445,-0.013 -20.71778,-1.1609 -26.40625,-4.09375 -1.7334,-0.89369 -2.74897,-1.6901 -2.28125,-1.75 0.46771,-0.06 4.11947,-0.35354 8.125,-0.65625 l 7.28125,-0.53125 -0.375,1.84375 c -0.20139,1.02742 0.019,1.875 0.46875,1.875 1.0955,0 4.106,-3.28105 3.125,-3.40625 -2.22722,-0.28428 5.07994,-1.37315 9.84375,-1.46875 9.15715,-0.18378 10.53558,-2.77514 2.03125,-3.8125 l -4.78125,-0.59375 4.09375,-4.0625 c 3.95459,-3.91979 4.50588,-5.63491 0.84375,-2.625 l -1.75,1.4375 c -0.0973,0.28937 -0.75255,1.11755 -2.125,2.5 -1.58665,1.5982 -3.07864,2.90625 -3.3125,2.90625 -0.23386,0 0.85085,-1.30805 2.4375,-2.90625 1.58665,-1.59821 3.07864,-2.90625 3.3125,-2.90625 0.0316,0 -0.29732,0.36109 -0.3125,0.40625 L 206.125,437.625 c 3.22086,-3.73522 1.25762,-2.72575 -3.375,1.71875 l -4.90625,4.6875 -4.6875,-0.53125 c -10.19693,-1.11647 -27.41642,-6.29132 -25.875,-7.78125 0.29374,-0.28392 9.19239,-0.53125 19.78125,-0.53125 l 19.25,0 0.28125,-1.4375 0.3125,-1.46875 -2.1875,0 c -10.99705,0 -39.8356,-9.27363 -44.46875,-14.3125 l -1.53125,-1.65625 4.6875,0.625 c 2.57244,0.3373 9.37258,1.49449 15.09375,2.5625 5.72117,1.06802 13.26502,2.18892 16.78125,2.5 l 6.40625,0.5625 0,-1.28125 0,-1.28125 -4.46875,-1.03125 c -13.8754,-3.18832 -32.41828,-11.14956 -39.34375,-16.90625 -4.59805,-3.82207 -3.85898,-4.01566 5.09375,-1.3125 4.20945,1.27099 11.47909,3.46417 16.15625,4.875 4.67717,1.41084 10.34085,2.80105 12.5625,3.09375 l 4.03125,0.53125 0,-1.15625 c 0,-0.64577 -2.59291,-2.42551 -5.75,-3.9375 -9.34403,-4.47506 -20.72699,-11.38613 -25.28125,-15.34375 l -4.25,-3.6875 1.09375,-1.125 1.09375,-1.09375 4.4375,2.34375 c 12.2445,6.48438 26.08563,13.02857 28.5,13.5 l 2.71875,0.53125 0,-1.125 c 0,-0.63256 -2.77367,-3.21198 -6.15625,-5.71875 -3.38258,-2.50676 -9.51553,-7.29728 -13.625,-10.625 l -7.46875,-6.03125 1.5,-2 c 1.22335,-1.63443 2.03012,-2.40392 3.5,-2.03125 z m 293.875,71.21875 -1.6875,-1.59375 c -1.61261,-1.52596 -2.9375,-2.29191 -2.9375,-1.71875 0,0.59911 -0.45137,0.78129 -1.0625,0.4375 -0.58464,-0.3289 -0.1334,0.38029 0.96875,1.5625 1.19434,1.28111 2.54199,1.9771 3.375,1.71875 l 1.34375,-0.40625 z M 487.5,375 c 0.23386,0 1.5307,1.13011 2.875,2.5 1.3443,1.36989 2.26511,2.5 2.03125,2.5 -0.23386,0 -1.5307,-1.13011 -2.875,-2.5 -1.34431,-1.36989 -2.26511,-2.5 -2.03125,-2.5 z m -10.03125,11.78125 c -1.24744,0.31707 -11.3125,9.74642 -11.3125,10.59375 0,0.33908 0.23216,0.83299 0.53125,1.125 0.78842,0.76973 2.11501,-0.20286 1.53125,-1.125 -0.61372,-0.96948 1.89219,-3.53051 2.875,-2.9375 0.3953,0.23852 2.23257,-1.13111 4.0625,-3.03125 1.82999,-1.90013 2.66225,-2.94881 1.84375,-2.34375 -0.92607,0.68458 -1.5,0.74173 -1.5,0.1875 0,-0.48985 0.68149,-1.27542 1.5,-1.78125 0.8185,-0.50582 1.02214,-0.82816 0.46875,-0.6875 z m -284.90625,0.6875 c -0.59977,0 -1.09375,0.45095 -1.09375,1 0,1.22191 5.09363,6.46875 6.28125,6.46875 0.47089,0 -0.6419,-1.48599 -2.46875,-3.3125 -1.82685,-1.82652 -3.12843,-3.34375 -2.90625,-3.34375 0.22218,0 3.65974,3.2891 7.625,7.28125 3.96527,3.99214 5.20551,5.38762 2.75,3.125 -6.68398,-6.15891 -5.40379,-3.439 1.65625,3.5 5.80135,5.70188 8.3125,7.23772 8.3125,5.09375 0,-1.3132 -18.81958,-19.8125 -20.15625,-19.8125 z M 206.34375,402 l 2.34375,2 c 1.28622,1.10702 2.34375,2.13254 2.34375,2.28125 0,0.65114 -0.6981,0.13395 -2.625,-2 L 206.34375,402 z m 98.46875,80.09375 -2.25,1.75 c -2.72895,2.09571 -2.75816,3.32853 -0.4375,14.28125 2.56597,12.11056 2.87447,12.12922 11.34375,0.21875 7.2083,-10.13712 8.01314,-13.65405 3.5625,-15.40625 l -1.84375,-0.71875 7.65625,0 7.65625,0.0312 -2.28125,0.8125 c -1.95834,0.69982 -16.69794,18.88071 -22.125,27.28125 -4.12688,6.38798 -6.55055,20.10789 -3.875,21.9375 l 1.875,1.3125 -10.1875,0 -10.15625,-0.0312 2.71875,-1.625 2.71875,-1.625 1.375,-4.78125 c 0.75191,-2.64319 1.92422,-6.47797 2.59375,-8.5 2.60604,-7.87032 -2.7137,-31.63141 -7.59375,-33.9375 l -1.8125,-0.875 10.53125,-0.0625 10.53125,-0.0625 z m 50.34375,14.8125 -5.40625,0.53125 c -20.55171,1.99457 -35.8497,30.52829 -20.125,37.53125 3.77516,1.68125 13.02861,0.97275 17.625,-1.34375 9.28257,-4.67825 10.53418,-9.91872 1.40625,-5.875 -2.03887,0.90323 -5.11633,1.64615 -6.84375,1.65625 l -3.125,0.0312 -1.34375,-1.84375 c -0.72809,-1.01486 -1.3125,-3.03156 -1.3125,-4.46875 l 0,-2.59375 4.90625,-0.96875 c 13.72258,-2.65693 22.95937,-14.61259 16.15625,-20.90625 l -1.9375,-1.75 z m -4.15625,1.8125 3.6875,0 1.71875,1.8125 c 4.29425,4.50008 -3.8827,14.98519 -13.15625,16.875 l -2.53125,0.53125 2.1875,-1.40625 c 3.02326,-1.94206 6.5323,-7.65595 7.1875,-11.65625 l 0.5625,-3.34375 -1.375,-1.09375 -1.34375,-1.09375 -2.5,1 c -2.97698,1.20387 -6.3192,5.71827 -8.59375,11.5625 -2.18464,5.61321 -2.14363,5.87198 1.09375,6 l 2.78125,0.125 -2.96875,0.5 -3,0.53125 -0.25,3.78125 -0.25,3.8125 1.65625,2 1.6875,2.03125 4.59375,-0.0625 4.59375,-0.0312 3.1875,-1.8125 c 1.74428,-1.00475 3.4102,-1.84375 3.6875,-1.84375 1.21032,0 -7.27679,5.39816 -9.96875,6.34375 -7.39258,2.59674 -14.72018,0.95528 -17.28125,-3.875 l -1.53125,-2.875 0.375,-3.5625 c 0.20393,-1.95805 1.59594,-5.99839 3.09375,-8.96875 l 2.71875,-5.40625 4.25,-3.25 c 5.53148,-4.26874 11.10939,-6.625 15.6875,-6.625 z m 16.46875,0.8125 11.0625,0 11.09375,0 -5.1875,6.25 C 381.59347,509.20597 379.07755,512 378.84375,512 c -0.23382,0 0.37437,-0.98435 1.34375,-2.1875 0.96938,-1.20315 1.78125,-2.68914 1.78125,-3.3125 l 0,-1.15625 -6.625,0 -6.625,0 -1.90625,1.3125 -1.9375,1.34375 0.59375,-2.375 c 0.32124,-1.29454 0.89359,-3.19133 1.28125,-4.21875 l 0.71875,-1.875 z m -20.0625,1.78125 c 2.38692,0.10859 1.64758,5.86506 -2.6875,11.28125 -1.35703,1.69545 -7.84375,4.97782 -7.84375,3.96875 0,-1.56845 5.35,-11.51707 7.125,-13.25 1.47359,-1.43866 2.61061,-2.0362 3.40625,-2 z M 377.375,513.625 c 0.84064,-0.66044 -0.64263,1.4406 -3.3125,4.6875 -5.3234,6.47397 -5.71229,7.64789 -3.15625,9.90625 0.9463,0.83609 2.34022,3.4806 3.0625,5.90625 0.72227,2.42565 1.93182,4.80181 2.71875,5.25 l 1.4375,0.8125 -1.3125,0 c -1.47028,0.0281 -8.78439,-4.26087 -9.6875,-5.6875 -0.31733,-0.50127 -1.71821,-0.90625 -3.09375,-0.90625 -1.37555,0 -2.5,-0.23385 -2.5,-0.5 0,-0.75947 14.13724,-18.12805 15.84375,-19.46875 z m 7.3125,15.9375 1.9375,0.28125 0.28125,2.84375 0.28125,2.8125 -2.03125,1.84375 c -1.12154,1.0153 -2.98992,2.1327 -4.125,2.46875 l -2.0625,0.59375 0.96875,-0.96875 c 0.54339,-0.56008 0.76215,-2.49998 0.53125,-4.5 l -0.40625,-3.5 1.34375,-1.0625 c 0.72555,-0.58788 2.20314,-0.96171 3.28125,-0.8125 z m -93.1875,50.5 1.53125,0 -1.8125,1.8125 c -1.00953,0.9856 -2.83446,1.87542 -4.03125,2 l -2.15625,0.25 2.4375,-2.03125 c 1.3514,-1.11019 3.17632,-2.03125 4.03125,-2.03125 z m 84.9375,70.5 c -1.98141,0.18037 -4.84326,0.92624 -8.71875,1.75 -4.16151,0.88455 -6.47065,3.3125 -3.15625,3.3125 2.4703,0 2.20341,2.391 -1.71875,15.5 -2.1646,7.2347 -4.13626,13.79465 -4.375,14.59375 l -0.4375,1.46875 -18.28125,0 -18.25,0 6.84375,-8.25 c 3.76472,-4.5386 6.84375,-8.66025 6.84375,-9.15625 l 0,-0.90625 -13.28125,0.21875 -13.28125,0.21875 -1.59375,5 c -2.65159,8.2996 -1.52721,10.0707 3.65625,5.8125 l 2.53125,-2.09375 4.6875,0 4.71875,0 -0.78125,1.0625 c -0.43829,0.5708 -2.0646,2.6218 -3.59375,4.5625 l -2.78125,3.53125 -10.21875,0 -10.21875,0 3.09375,-3.375 c 5.24097,-5.6636 6.142,-10.2843 2.65625,-13.6875 l -2.09375,-2.03125 -4.25,0 c -9.2281,0 -20.30024,6.8568 -24.59375,15.25 l -1.96875,3.84375 -11.84375,0 -11.84375,0 0,-1.625 c 0,-0.8941 3.32829,-6.9739 7.375,-13.5 9.1818,-14.8075 9.5509,-15.315 12.40625,-16.5 1.38947,-0.57665 2.34375,-1.6191 2.34375,-2.5625 l 0,-1.59375 -9.15625,0.25 -9.125,0.25 -0.25,1.3125 c -0.17305,0.88259 0.66632,1.57158 2.53125,2.09375 3.98051,1.11454 -1.48405,15.21505 -8.59375,22.15625 -0.96983,0.9468 -12.27944,-19.88323 -11.65625,-21.46875 0.26302,-0.66917 1.44102,-1.1875 2.625,-1.1875 l 2.15625,0 0,-1.6875 0,-1.65625 -14.03125,0 -14.03125,0 0,1.46875 c 0.0102,0.80386 1.23239,1.99848 2.71875,2.6875 l 2.6875,1.25 4.375,7.46875 c 5.17981,8.8655 12.3125,21.8807 12.3125,22.4375 0,0.2168 -8.97741,0.40625 -19.96875,0.40625 l -20,0 0,2.90625 0,2.90625 20,0 19.96875,0 0,3.65625 c 0,4.4691 -1.62076,6.28125 -5.59375,6.28125 l -2.90625,0 0,1.6875 0,1.65625 16.15625,0 16.15625,0 0,-1.65625 0,-1.6875 -2.59375,0 c -1.4339,0 -3.34532,-0.37105 -4.25,-0.84375 l -1.65625,-0.875 0,-4.09375 0,-4.125 10.9375,0 10.96875,0 0.4375,3.8125 c 0.88562,7.671 4.89247,10.5272 14.21875,10.0625 l 6.375,-0.3125 3.40625,-1.78125 c 9.0494,-4.7263 11.24338,-11.36995 2.28125,-6.90625 -1.87328,0.9331 -4.90053,1.9613 -6.75,2.25 l -3.375,0.5 -1.8125,-1.90625 c -0.99977,-1.0477 -1.8125,-2.757 -1.8125,-3.8125 l 0,-1.90625 15.75,0 15.78125,0 -4.71875,5.6875 c -5.63452,6.8084 -5.77428,7.59375 -1.34375,7.59375 l 3.375,0 2.90625,2.46875 c 1.58759,1.3609 3.78819,2.8509 4.90625,3.3125 5.85465,2.4169 14.3312,-0.5161 16.09375,-5.5625 l 0.9375,-2.65625 -1.125,-2.3125 -1.125,-2.3125 -2.84375,-0.28125 c -1.80824,-0.1695 -3.43556,0.2747 -4.46875,1.1875 l -1.625,1.4375 0,4.0625 c 0,5.1088 -1.15143,4.52945 -2.9375,-1.46875 -0.75067,-2.521 -2.13869,-5.34885 -3.09375,-6.28125 l -1.75,-1.6875 1.46875,-1.59375 1.5,-1.59375 19.75,0 19.78125,0 -1.1875,3.84375 c -1.59277,5.1669 -1.51526,6.62625 0.5,8.59375 l 1.6875,1.65625 3.46875,0 c 5.25307,0 13.5625,-5.67555 13.5625,-9.28125 0,-2.1418 -2.11656,-1.85375 -4.6875,0.65625 -2.79669,2.7304 -3.34193,2.2364 -2.15625,-2.0625 L 368.40625,693 374,693 379.59375,693 379,694.4375 c -0.32242,0.7991 -0.80869,3.3561 -1.0625,5.6875 l -0.4375,4.25 2,1.375 c 4.61209,3.1539 11.39287,0.8763 16.03125,-5.375 4.32043,-5.8228 2.11975,-9.27815 -2.53125,-3.96875 -2.53606,2.8951 -3.1673,2.43835 -1.71875,-1.28125 L 392.125,693 l 5.53125,0 c 3.05173,0 5.5655,0.2826 5.5625,0.625 -0.004,0.3425 -0.79046,3.0319 -1.71875,6 -0.92829,2.9681 -1.6845,5.7 -1.6875,6.0625 -0.004,0.3621 2.73713,0.54045 6.09375,0.40625 l 6.125,-0.25 2,-6.40625 2,-6.4375 4.71875,0 4.75,0 -0.625,1.4375 c -0.34053,0.7991 -0.79327,3.2559 -1.03125,5.4375 l -0.4375,3.9375 1.5,1.65625 1.53125,1.625 3.5,0 c 5.07299,0 12.40625,-5.2416 12.40625,-8.875 0,-2.6213 -2.1447,-2.447 -4.78125,0.375 l -2.125,2.28125 0.59375,-2.0625 c 0.32266,-1.1416 0.88756,-2.94135 1.28125,-3.96875 L 438.03125,693 l 4.125,0 4.09375,0 0.0937,2.8125 c 0.11629,4.0053 1.89853,7.17795 5.34375,9.46875 l 2.96875,1.96875 5.96875,-0.34375 c 9.59655,-0.5825 21.62468,-8.2638 16.15625,-10.3125 -0.70519,-0.2642 -2.13875,0.0841 -3.1875,0.75 -1.04875,0.6659 -3.3748,1.6798 -5.15625,2.25 l -3.25,1.03125 -2.375,-0.96875 c -2.15538,-0.8716 -4.3125,-3.8101 -4.3125,-5.875 0,-0.4794 8.03872,-0.78125 20.40625,-0.78125 l 20.40625,0 0,-2.90625 0,-2.90625 -20,0 -19.96875,0 0.0312,-1.0625 c 0.0716,-3.9812 6.14181,-12.27025 10.1875,-13.90625 3.135,-1.2678 4.17851,-0.54925 2.25,1.53125 -5.12423,5.5279 2.09411,12.57025 7.65625,7.46875 l 1.96875,-1.8125 0,-3.5 0,-3.53125 -2.71875,-2.21875 -2.71875,-2.25 -5.125,0.34375 c -9.14627,0.5841 -17.53004,6.3934 -21.90625,15.1875 l -1.875,3.75 -3.59375,0 -3.59375,0 0.875,-2.71875 c 0.47754,-1.484 1.223,-4.3827 1.65625,-6.4375 l 0.78125,-3.71875 -1,-2.3125 c -2.71671,-6.407 -12.12373,-4.44615 -19.28125,4.03125 -1.4923,1.7675 -2.72375,3.0307 -2.71875,2.8125 0.005,-0.2182 0.58475,-2.22725 1.28125,-4.46875 2.33737,-7.5223 2.0694,-7.58835 -14.65625,-4.15625 -2.37142,0.4866 -2.51639,2.50705 -0.21875,3.09375 2.09095,0.5338 2.14502,2.36155 0.28125,8.90625 l -1.40625,4.96875 -5.8125,0 -5.78125,0 0.34375,-1.0625 c 2.47813,-7.3494 4.71875,-15.15055 4.71875,-16.53125 l 0,-1.75 -4.65625,0.53125 c -10.37683,1.1907 -18.99866,4.6875 -11.5625,4.6875 2.63266,0 2.72876,1.12305 0.65625,7.59375 l -1.9375,6.09375 -5.59375,0.25 -5.625,0.25 2.5,-8.125 c 7.49763,-24.36143 9.63173,-29.1036 3.6875,-28.5625 z m 18.28125,0.125 c -5.04315,0.67521 -8.84608,7.10664 -4.25,11.59375 2.17487,2.1236 6.80863,2.1407 9.4375,0.0625 l 2,-1.5625 0,-3.5 0,-3.5 -2,-1.5625 c -1.68552,-1.3325 -3.50645,-1.75632 -5.1875,-1.53125 z m -0.0937,1.625 1.9375,0.71875 c 1.07888,0.38731 2.31875,1.66527 2.75,2.84375 l 0.78125,2.15625 -1.125,1.34375 c -0.62664,0.7372 -1.85865,1.70685 -2.71875,2.15625 l -1.5625,0.8125 -2.09375,-2.09375 c -2.64077,-2.5782 -2.66645,-3.36403 -0.0625,-5.90625 l 2.09375,-2.03125 z m -18.25,0.78125 c 0.817,-0.0197 1.34375,0.0582 1.34375,0.25 0,0.69329 -3.86949,13.755 -8.03125,27.125 -1.19769,3.8476 -2.1875,7.3113 -2.1875,7.6875 0,0.3761 3.60225,0.6875 8,0.6875 l 8,0 1.84375,-5.96875 c 1.02169,-3.2839 1.73472,-7.15355 1.5625,-8.59375 l -0.3125,-2.625 L 391.5,670.875 c 2.70396,-0.4366 4.91125,-0.59575 4.90625,-0.34375 -0.005,0.252 -1.13855,4.00575 -2.53125,8.34375 -1.39271,4.3379 -2.5575,8.3667 -2.5625,8.9375 l 0,1.03125 8.0625,0 8.03125,0 1.46875,-4.78125 c 0.80745,-2.6256 1.50705,-6.502 1.53125,-8.625 l 0.0312,-3.875 4.96875,-0.78125 4.9375,-0.78125 -0.40625,1.3125 c -3.08426,9.6854 -3.92879,13.3066 -3.5,15.25 l 0.53125,2.28125 6.15625,0 6.15625,0 1.40625,-4.4375 c 0.78699,-2.4375 1.4375,-5.44065 1.4375,-6.65625 l 0,-2.1875 -2.28125,0 c -1.26063,0 -3.30723,0.8476 -4.53125,1.875 -1.224,1.0275 -0.4776,0.1962 1.65625,-1.8125 6.44388,-6.0659 10.61502,-7.0032 12.84375,-2.9375 l 1.09375,2 -1.84375,6.5625 c -1.01073,3.6006 -1.84375,6.7749 -1.84375,7.0625 0,0.2875 2.65966,0.53125 5.90625,0.53125 l 5.90625,0 2.75,-5.0625 c 1.51665,-2.7781 4.31702,-6.2609 6.21875,-7.75 5.33087,-4.1742 6.19442,-4.4302 4.03125,-1.25 -2.61418,3.8433 -4.44683,7.9845 -5,11.3125 l -0.46875,2.75 20.53125,0 20.5,0 0,1.25 0,1.25 -20.9375,0 -20.9375,0 0.5,3.09375 c 0.28285,1.7017 1.24761,4.0352 2.125,5.1875 l 1.59375,2.09375 4.59375,0.40625 4.59375,0.40625 -2.90625,1.1875 c -9.21308,3.7918 -17.9375,-1.0009 -17.9375,-9.875 l 0,-2.5 -6.25,0 -6.21875,0 -1.5625,4.9375 -1.53125,4.96875 1,1.15625 1,1.1875 L 432.125,704.5 c -3.00103,1.0214 -4.81721,0.5382 -5.96875,-1.5625 l -0.8125,-1.46875 1.25,-4.03125 c 0.68811,-2.2143 1.27625,-4.4917 1.28125,-5.0625 l 0,-1.03125 -6.8125,0 -6.84375,0 -0.78125,1.84375 c -0.4326,1.0274 -1.38529,4.03065 -2.125,6.65625 l -1.34375,4.78125 -3.71875,0 -3.71875,0 1.59375,-5.1875 c 0.88899,-2.854 1.622,-5.85715 1.625,-6.65625 l 0.0312,-1.4375 -7.96875,0 -7.9375,0 -0.96875,3.1875 c -1.2373,4.0318 -1.27361,6.16125 -0.0625,7.34375 l 0.96875,0.9375 -2.625,1.3125 -2.59375,1.3125 -2.0625,-0.78125 c -2.77337,-1.0294 -3.05825,-2.16515 -1.71875,-7.09375 0.6205,-2.2832 1.119,-4.6167 1.125,-5.1875 l 0.0312,-1.03125 -7.6875,0 -7.6875,0 -0.90625,2.28125 c -1.56455,3.9515 -1.85865,7.60205 -0.75,8.90625 l 1.03125,1.21875 -2.40625,0.90625 -2.40625,0.875 -1.9375,-0.875 c -2.80096,-1.246 -3.08993,-2.6828 -1.5625,-7.8125 0.74203,-2.4919 1.34375,-4.75905 1.34375,-5.03125 0,-0.2722 -18.62992,-0.46875 -41.375,-0.46875 l -41.34375,0 0.46875,3.90625 0.4375,3.90625 1.875,1.46875 c 1.24313,0.9828 3.35904,1.50925 6.25,1.53125 l 4.375,0.0312 -2.125,1.09375 c -8.90843,4.6341 -17.8105,1.07905 -18.53125,-7.40625 l -0.375,-4.53125 -13.5,0 -13.53125,0 0,4.78125 c 0,2.9976 0.51644,5.50305 1.34375,6.65625 l 1.3125,1.84375 -7.75,0 -7.75,0 1.34375,-1.84375 c 0.8273,-1.1532 1.3125,-3.65865 1.3125,-6.65625 l 0,-4.78125 -20.40625,0 -20.40625,0 0,-1.25 0,-1.25 20.40625,0 20.40625,0 0,-1.71875 c 0,-2.0011 -13.52992,-26.34463 -17.15625,-30.875 l -2.5,-3.125 8,0 7.96875,0 -0.375,2.375 c -0.38803,2.5812 0.73202,5.02205 8.125,17.84375 l 4.6875,8.15625 1.6875,-0.4375 1.71875,-0.4375 -0.96875,0.96875 c -0.53509,0.5224 -1,2.35855 -1,4.09375 l 0,3.15625 14.25,-0.0625 14.25,-0.0312 2.15625,-4.28125 c 1.34739,-2.685 3.81377,-5.60635 6.625,-7.84375 5.18365,-4.1254 6.96764,-4.58235 4.46875,-1.15625 -2.25285,3.0889 -5.15625,9.73555 -5.15625,11.78125 l 0,1.59375 3.3125,0 3.34375,0 2.65625,-2.1875 c 4.77387,-3.9218 7.44345,-11.39365 5.5625,-15.59375 l -0.71875,-1.59375 2.84375,0.5625 c 7.46871,1.4583 6.41084,9.0598 -2.03125,14.6875 -1.6748,1.1164 -3.24354,2.495 -3.46875,3.0625 l -0.40625,1.03125 35.40625,-0.1875 35.4375,-0.1875 4.5625,-14.96875 c 2.5102,-8.2193 4.41015,-15.88824 4.25,-17.0625 l -0.28125,-2.15625 4.5,-0.78125 c 1.23959,-0.22169 2.3705,-0.35528 3.1875,-0.375 z m -123.15625,0.0312 4.625,0.0312 4.625,0.0312 L 261,654.03125 c -0.81678,0.4645 -2.47604,2.21566 -3.65625,3.90625 l -2.125,3.09375 0.5625,-2.84375 0.59375,-2.8125 -1.59375,-1.125 -1.5625,-1.125 z m 57.40625,17.4375 10.6875,0 10.65625,0 -2.65625,2.96875 -2.65625,2.9375 -8.90625,0.15625 -8.90625,0.1875 0.40625,-1.375 c 0.22837,-0.7526 0.64051,-2.1652 0.90625,-3.125 l 0.46875,-1.75 z m 165.78125,0.90625 c 0.56151,0.10542 1.32489,0.7925 2.15625,2.03125 l 1.4375,2.125 -0.9375,2 c -0.51088,1.0947 -1.69887,2.35985 -2.625,2.84375 l -1.65625,0.90625 -1.34375,-1.3125 c -1.73636,-1.6951 -1.67525,-2.28225 0.375,-4.09375 0.93544,-0.8265 1.6875,-2.18875 1.6875,-3.03125 0,-1.08265 0.34474,-1.57417 0.90625,-1.46875 z m -186.28125,0.46875 0.90625,0.875 0.90625,0.875 -1.09375,3.625 c -0.62919,2.0502 -2.49012,4.93955 -4.3125,6.71875 -3.12962,3.0554 -5.78125,4.07265 -5.78125,2.21875 0,-1.6528 5.20229,-10.5021 7.3125,-12.4375 l 2.0625,-1.875 z m 139.75,5.34375 c 0.19125,0.1998 -0.28233,2.39475 -1.0625,4.90625 l -1.40625,4.5625 -3.65625,0.28125 -3.65625,0.25 0.84375,-1.5 c 1.09056,-1.9459 8.48284,-8.9751 8.9375,-8.5 z m -119.5,20.28125 2.375,1.71875 2.375,1.71875 1.4375,4.71875 c 0.78705,2.5884 1.3815,4.7015 1.3125,4.6875 -0.83054,-0.1673 -3.98322,-2.28225 -5.65625,-3.78125 -1.16929,-1.0476 -3.36831,-2.00925 -4.875,-2.15625 l -2.71875,-0.28125 2.875,-3.3125 2.875,-3.3125 z m 16.1875,2.46875 1.84375,1.78125 1.84375,1.78125 -0.5625,1.71875 c -0.31049,0.9551 -1.68701,2.5438 -3.0625,3.5 l -2.5,1.71875 0,-2.0625 c 0,-1.1353 -0.21443,-2.603 -0.46875,-3.25 -0.25432,-0.647 0.29134,-2.05355 1.21875,-3.15625 l 1.6875,-2.03125 z"
       id="path3830" />
  </g>
</svg>
